<svg width="29" height="35" viewBox="0 0 29 35" fill="none" xmlns="http://www.w3.org/2000/svg">
<path d="M17.6528 0H28.4314V10.7151H23.1245V5.27565H17.6528V0Z" fill="#FAB005"/>
<path d="M18.0246 17.9189C15.9208 20.0105 12.5101 20.0105 10.4062 17.9189C8.30234 15.8275 8.30234 12.4369 10.4062 10.3455C12.5101 8.25399 15.9208 8.25399 18.0246 10.3455C20.1284 12.4369 20.1284 15.8275 18.0246 17.9189Z" fill="#FAB005"/>
<path d="M20.5149 20.3944C17.035 23.8544 11.3965 23.8544 7.91607 20.3944C4.43564 16.9346 4.43564 11.3292 7.91607 7.86931C9.59586 6.19942 11.8402 5.27565 14.2158 5.27565V0C10.5773 0 6.93929 1.37976 4.16343 4.13928C-1.38781 9.65833 -1.38781 18.606 4.16343 24.125L14.2158 34.1177L24.2676 24.125C27.0434 21.3655 28.4314 17.7489 28.4314 14.1318H23.1245C23.1245 16.4934 22.1952 18.7246 20.5149 20.3944Z" fill="#7950F2"/>
</svg>
