<svg width="16" height="16" viewBox="0 0 16 16" fill="none" xmlns="http://www.w3.org/2000/svg">
<path d="M7.99811 1.50073C8.10171 1.50073 8.20307 1.53192 8.28912 1.5896C8.37519 1.64731 8.44216 1.72909 8.48151 1.82495L8.48248 1.82593L9.90436 5.26831L10.0206 5.55151L10.3262 5.57593L14.0137 5.87378V5.8728C14.1167 5.88191 14.215 5.92183 14.296 5.98608C14.3774 6.05074 14.4377 6.13819 14.4698 6.23706C14.5019 6.336 14.5046 6.44254 14.4766 6.54272C14.4486 6.64284 14.3913 6.73259 14.3126 6.80054L12.9639 7.9646L12.9659 7.96362L11.504 9.22632L11.2745 9.42456L11.3438 9.71948L12.2012 13.3494V13.3513C12.2254 13.4521 12.2195 13.5578 12.1837 13.655C12.1478 13.7523 12.0839 13.8372 12.0001 13.8982C11.9162 13.9592 11.8156 13.9936 11.712 13.9978C11.6083 14.002 11.5056 13.9757 11.4171 13.9216H11.4161L8.26178 11.9802L8.00006 11.8181L7.73834 11.9802L4.58209 13.9207C4.49369 13.9744 4.39151 14.001 4.28815 13.9968C4.18463 13.9925 4.08381 13.9572 4.00006 13.8962C3.91658 13.8353 3.85327 13.751 3.81744 13.6541C3.78157 13.5569 3.77485 13.4511 3.79889 13.3503V13.3494L4.65924 9.72046L4.72858 9.42456L4.49908 9.22632L1.68658 6.79956C1.60828 6.73176 1.55149 6.64246 1.5235 6.54272C1.49551 6.44267 1.49742 6.33593 1.52936 6.23706C1.56131 6.13825 1.62198 6.05082 1.70319 5.98608C1.78314 5.9224 1.87984 5.88268 1.98151 5.8728L1.98248 5.87378L5.66998 5.57593L5.97565 5.55151L6.09186 5.26831L7.51471 1.82593V1.82495C7.55399 1.72923 7.62122 1.6473 7.70709 1.5896C7.79307 1.53195 7.8946 1.5008 7.99811 1.50073Z" fill="#F8F9FA" stroke="#FAB005"/>
</svg>
