<svg width="40" height="48" viewBox="0 0 40 48" fill="none" xmlns="http://www.w3.org/2000/svg">
<path d="M24.8357 0H40V15.075H32.5338V7.42229H24.8357V0Z" fill="#FAB005"/>
<path d="M25.3589 25.21C22.399 28.1525 17.6005 28.1525 14.6405 25.21C11.6806 22.2676 11.6806 17.4973 14.6405 14.5549C17.6005 11.6124 22.399 11.6124 25.3589 14.5549C28.3187 17.4973 28.3187 22.2676 25.3589 25.21Z" fill="#FAB005"/>
<path d="M28.8624 28.6928C23.9665 33.5606 16.0337 33.5606 11.1371 28.6928C6.24048 23.8252 6.24048 15.939 11.1371 11.0713C13.5004 8.72193 16.6579 7.42229 20.0002 7.42229V0C14.8811 0 9.76286 1.94118 5.85751 5.82354C-1.9525 13.5883 -1.9525 26.1766 5.85751 33.9414L20.0002 48L34.1419 33.9414C38.0473 30.059 40 24.9709 40 19.882H32.5338C32.5338 23.2046 31.2263 26.3436 28.8624 28.6928Z" fill="#7950F2"/>
</svg>
