<svg width="75" height="20" viewBox="0 0 75 20" fill="none" xmlns="http://www.w3.org/2000/svg">
<path d="M2.24 9.49333H0V6.4H2.24V4.21333C2.24 2.80889 2.67556 1.76 3.54667 1.06667C4.43556 0.355555 5.52889 0 6.82667 0C7.50222 0 8.13333 0.0888888 8.72 0.266666V3.17333L8.53333 3.28C8.14222 3.12 7.74222 3.04 7.33333 3.04C6.90667 3.04 6.56889 3.15555 6.32 3.38667C6.07111 3.61778 5.94667 3.96444 5.94667 4.42667V6.4H14.16V19.7333H10.4267V9.49333H5.94667V19.7333H2.24V9.49333ZM12.2933 4.93333C11.6889 4.93333 11.1733 4.72 10.7467 4.29333C10.3378 3.86667 10.1333 3.36 10.1333 2.77333C10.1333 2.18667 10.3378 1.68 10.7467 1.25333C11.1733 0.826667 11.6889 0.613333 12.2933 0.613333C12.88 0.613333 13.3867 0.826667 13.8133 1.25333C14.24 1.68 14.4533 2.18667 14.4533 2.77333C14.4533 3.36 14.24 3.86667 13.8133 4.29333C13.3867 4.72 12.88 4.93333 12.2933 4.93333Z" fill="#212529"/>
<path d="M17.3396 6.4H21.0729V8.13333C22.3351 6.8 23.8107 6.13333 25.4996 6.13333C26.9396 6.13333 28.0685 6.55111 28.8863 7.38667C29.704 8.22222 30.1129 9.29778 30.1129 10.6133V19.7333H26.3796V11.7067C26.3796 10.9244 26.1929 10.3378 25.8196 9.94667C25.464 9.53778 24.9307 9.33333 24.2196 9.33333C23.5974 9.33333 23.0018 9.52889 22.4329 9.92C21.864 10.2933 21.4107 10.7644 21.0729 11.3333V19.7333H17.3396V6.4Z" fill="#212529"/>
<path d="M39.0098 20C37.9609 20 36.9476 19.7422 35.9698 19.2267C34.992 18.6933 34.1831 17.9022 33.5431 16.8533C32.9209 15.8044 32.6098 14.5422 32.6098 13.0667C32.6098 11.5733 32.9209 10.3111 33.5431 9.28C34.1653 8.23111 34.9831 7.44889 35.9965 6.93333C37.0098 6.4 38.0853 6.13333 39.2231 6.13333C40.7165 6.13333 42.0231 6.58667 43.1431 7.49333V0.266666H46.8765V19.7333H43.1431V18.3467C42.112 19.4489 40.7342 20 39.0098 20ZM39.8898 16.9067C40.8142 16.9067 41.5876 16.6222 42.2098 16.0533C42.832 15.4667 43.1431 14.6844 43.1431 13.7067V12.4267C43.1431 11.4667 42.8231 10.6933 42.1831 10.1067C41.5609 9.52 40.7876 9.22667 39.8631 9.22667C38.832 9.22667 37.9965 9.56444 37.3565 10.24C36.7165 10.9156 36.3965 11.8578 36.3965 13.0667C36.3965 14.2756 36.7165 15.2178 37.3565 15.8933C38.0142 16.5689 38.8587 16.9067 39.8898 16.9067Z" fill="#212529"/>
<path d="M50.1781 6.4H53.9115V8C54.3915 7.43111 54.9426 6.97778 55.5648 6.64C56.187 6.30222 56.8715 6.13333 57.6181 6.13333C58.1515 6.13333 58.5781 6.20444 58.8981 6.34667L58.4181 9.28L58.2315 9.46667C57.8759 9.37778 57.5737 9.33333 57.3248 9.33333C56.5959 9.33333 55.9381 9.53778 55.3515 9.94667C54.7648 10.3556 54.2848 10.9511 53.9115 11.7333V19.7333H50.1781V6.4Z" fill="#212529"/>
<path d="M67.2069 20C65.8202 20 64.5758 19.6978 63.4735 19.0933C62.3713 18.4889 61.5091 17.6622 60.8869 16.6133C60.2646 15.5644 59.9535 14.3822 59.9535 13.0667C59.9535 11.7511 60.2646 10.5689 60.8869 9.52C61.5091 8.47111 62.3713 7.64444 63.4735 7.04C64.5758 6.43555 65.8202 6.13333 67.2069 6.13333C68.6113 6.13333 69.8646 6.43555 70.9669 7.04C72.0691 7.64444 72.9313 8.47111 73.5535 9.52C74.1758 10.5689 74.4869 11.7511 74.4869 13.0667C74.4869 14.3822 74.1758 15.5644 73.5535 16.6133C72.9313 17.6622 72.0691 18.4889 70.9669 19.0933C69.8646 19.6978 68.6113 20 67.2069 20ZM67.2069 16.7733C68.238 16.7733 69.0824 16.4444 69.7402 15.7867C70.4158 15.1111 70.7535 14.2044 70.7535 13.0667C70.7535 11.9289 70.4158 11.0311 69.7402 10.3733C69.0824 9.69778 68.238 9.36 67.2069 9.36C66.1758 9.36 65.3313 9.69778 64.6735 10.3733C64.0158 11.0311 63.6869 11.9289 63.6869 13.0667C63.6869 14.2044 64.0158 15.1111 64.6735 15.7867C65.3313 16.4444 66.1758 16.7733 67.2069 16.7733Z" fill="#212529"/>
</svg>
